<svg xmlns="http://www.w3.org/2000/svg" viewBox="0 0 307.62 307.83"><defs><style>.cls-1{fill:#a37272;}</style></defs><g id="Layer_2" data-name="Layer 2"><g id="Icons_hover" data-name="Icons hover"><path id="phone.icon.hover" class="cls-1" d="M0,17.36A307.49,307.49,0,0,0,11.23,96c6.16,22.06,23.28,80.62,76.6,132.77,17.25,16.87,78,71.93,167,78.43a238.28,238.28,0,0,0,34.72,0,27.18,27.18,0,0,0,13.28-10.52c3.95-6,4.26-12.19,4.39-15.83.89-24.15.1-55.58,0-59.23a25.14,25.14,0,0,0-29.41-19.92,80.25,80.25,0,0,1-31.15-3.57c-8.12-2.68-12.44-5.7-20.43-6.13-9.18-.5-16.87,2.76-22,5.62L169,225.19A227.22,227.22,0,0,1,81.7,138.38a103.27,103.27,0,0,0,28.09-35.74,99.46,99.46,0,0,0,6.12-16.85c-1.09-3.7-2.57-9-4.08-15.32a269.29,269.29,0,0,1-6.13-36.26c-.41-4.36-.85-10.29-1-17.36Q97.8,8.42,90.89,0h-73A40.11,40.11,0,0,0,6.13,8.68,39.68,39.68,0,0,0,0,17.36Z"/></g></g></svg>